HIERARCHY
ROOT Hips
{
	OFFSET 0.00 0.00 0.00
	CHANNELS 6 Xposition Yposition Zposition Xrotation Yrotation Zrotation
	JOINT Spine
	{
		OFFSET 0.00000 9.62115 0.00000
		CHANNELS 3 Xrotation Yrotation Zrotation
		JOINT Head
		{
			OFFSET 0.00000 12.77195 0.00000
			CHANNELS 3 Xrotation Yrotation Zrotation
			End Site
			{
				OFFSET 0.00000 4.52755 0.00000
			}
		}
		JOINT LeftShoulder
		{
			OFFSET 0.00000 7.40057 0.00000
			CHANNELS 3 Xrotation Yrotation Zrotation
			JOINT LeftArm
			{
				OFFSET 8.34930 0.00000 0.00000
				CHANNELS 3 Xrotation Yrotation Zrotation
				JOINT LeftForeArm
				{
					OFFSET 11.33484 0.00000 0.00000
					CHANNELS 3 Yrotation Zrotation Xrotation
					JOINT LeftHand
					{
						OFFSET 9.69418 0.00000 0.00000
						CHANNELS 3 Xrotation Yrotation Zrotation
						JOINT LeftHandThumb1
						{
							OFFSET 0.00000 0.00000 0.00000
							CHANNELS 3 Xrotation Zrotation Yrotation
							End Site
							{
								OFFSET 0.00000 0.00000 3.93700
							}
						}
						End Site
						{
							OFFSET 3.93700 0.00000 0.00000
						}
					}
				}
			}
		}
		JOINT RightShoulder
		{
			OFFSET 0.00000 7.40057 0.00000
			CHANNELS 3 Xrotation Yrotation Zrotation
			JOINT RightArm
			{
				OFFSET -8.34930 0.00000 0.00000
				CHANNELS 3 Xrotation Yrotation Zrotation
				JOINT RightForeArm
				{
					OFFSET -11.33484 0.00000 0.00000
					CHANNELS 3 Yrotation Zrotation Xrotation
					JOINT RightHand
					{
						OFFSET -9.69418 0.00000 0.00000
						CHANNELS 3 Xrotation Yrotation Zrotation
						JOINT RightHandThumb1
						{
							OFFSET 0.00000 0.00000 0.00000
							CHANNELS 3 Xrotation Zrotation Yrotation
							End Site
							{
								OFFSET 0.00000 0.00000 3.93700
							}
						}
						End Site
						{
							OFFSET -3.93700 0.00000 0.00000
						}
					}
				}
			}
		}
	}
	JOINT LeftUpLeg
	{
		OFFSET 2.70060 0.00000 0.00000
		CHANNELS 3 Xrotation Yrotation Zrotation
		JOINT LeftLeg
		{
			OFFSET 0.00000 -16.75718 0.00000
			CHANNELS 3 Xrotation Yrotation Zrotation
			JOINT LeftFoot
			{
				OFFSET 0.00000 -16.75915 0.00000
				CHANNELS 3 Xrotation Yrotation Zrotation
				JOINT LeftToeBase
				{
					OFFSET 0.00000 -1.51183 5.64225
					CHANNELS 3 Xrotation Yrotation Zrotation
					End Site
					{
						OFFSET 0.00000 0.00000 2.95275
					}
				}
			}
		}
	}
	JOINT RightUpLeg
	{
		OFFSET -2.70060 0.00000 0.00000
		CHANNELS 3 Xrotation Yrotation Zrotation
		JOINT RightLeg
		{
			OFFSET 0.00000 -16.75718 0.00000
			CHANNELS 3 Xrotation Yrotation Zrotation
			JOINT RightFoot
			{
				OFFSET 0.00000 -16.75915 0.00000
				CHANNELS 3 Xrotation Yrotation Zrotation
				JOINT RightToeBase
				{
					OFFSET 0.00000 -1.51183 5.64225
					CHANNELS 3 Xrotation Yrotation Zrotation
					End Site
					{
						OFFSET 0.00000 0.00000 2.95275
					}
				}
			}
		}
	}
}
MOTION
Frames: 13
Frame Time: 0.008333
 17.4410 36.0868 -18.2946 -168.0690 4.6468 -171.1598 35.0546 -0.3010 -18.0817 6.4590 9.7337 25.5445 10.9820 10.3338 12.2027 -16.2321 -23.6148 -83.7805 -27.9155 -0.0000 -5.1312 0.0870 4.1636 -1.1975 33.1476 -0.0000 26.2537 1.2366 -17.8065 -5.4955 -12.5058 34.3782 77.2315 46.7076 0.0000 4.8645 0.1803 -11.1047 0.9360 32.8623 0.0000 -24.3270 -104.7749 14.4966 14.7894 134.2580 -0.0000 0.0000 -5.1523 9.8230 -7.9615 -8.9516 -0.0000 -0.0000 7.6937 -22.8450 -6.0587 11.0792 0.0000 -0.0000 -11.2899 -7.4144 3.7422 3.5545 0.0000 0.0000
 17.4392 36.0760 -18.2973 -167.9525 4.6229 -171.0334 35.1353 -0.5214 -18.0953 6.6097 9.7275 25.3939 11.0097 10.3175 12.0383 -16.2855 -23.6143 -83.6410 -28.0137 -0.0000 -5.0436 0.0704 4.2847 -0.9417 33.1476 -0.0000 26.2537 1.3007 -17.8492 -5.4548 -12.4817 34.3162 77.1839 47.1150 0.0000 4.7513 0.1921 -11.0956 0.9981 32.8623 0.0000 -24.3270 -105.0939 14.4729 14.6244 134.2870 -0.0000 -0.0000 -5.1172 9.6103 -7.9643 -9.0159 0.0000 0.0000 7.6886 -22.9169 -6.2377 11.2239 -0.0000 0.0000 -11.4803 -7.3218 3.6956 3.5938 0.0000 -0.0000
 17.4428 36.0669 -18.3008 -167.8179 4.5954 -170.9539 35.2473 -0.6956 -18.0412 6.6933 9.8583 25.2549 10.9917 10.2562 11.8573 -16.3465 -23.5893 -83.5259 -28.0153 -0.0000 -5.3541 0.0382 4.2620 -0.5140 33.1476 -0.0000 26.2537 1.4086 -17.9032 -5.3797 -12.5209 34.1335 77.1144 47.5802 0.0000 4.2141 0.3163 -11.4263 1.5962 32.8623 0.0000 -24.3270 -105.2694 14.3793 14.4855 134.2410 0.0000 -0.0000 -5.0784 9.4191 -7.9088 -9.1448 -0.0000 -0.0000 7.7622 -22.9777 -6.3478 11.3032 0.0000 -0.0000 -11.6294 -7.2600 3.6870 3.6474 -0.0000 0.0000
 17.4562 36.0565 -18.3067 -167.7183 4.6293 -170.9761 35.2904 -0.7660 -17.9166 6.8835 9.9211 25.0325 10.9565 10.2522 11.6592 -16.4013 -23.5950 -83.4407 -27.9513 -0.0000 -5.4442 0.0292 4.1694 -0.4017 33.1476 -0.0000 26.2537 1.6135 -17.9411 -5.2390 -12.5314 34.1188 76.9512 47.8957 0.0000 4.1308 0.3015 -11.3557 1.5311 32.8623 0.0000 -24.3270 -105.3912 14.1938 14.4326 134.1751 0.0000 -0.0000 -5.0708 9.4090 -7.8447 -9.1805 0.0000 0.0000 7.8801 -22.9433 -6.3253 11.3389 -0.0000 0.0000 -11.7557 -7.2469 3.7119 3.6856 -0.0000 0.0000
 17.4723 36.0458 -18.3094 -167.6439 4.6951 -171.0570 35.3218 -0.7148 -17.7532 7.1071 9.8461 24.8239 10.9093 10.2087 11.5077 -16.5355 -23.5063 -83.4665 -27.7605 -0.0000 -5.4198 0.0188 4.1596 -0.2593 33.1476 -0.0000 26.2537 1.7182 -17.9648 -5.1173 -12.3293 34.1550 76.7137 48.1869 0.0000 4.1693 0.2150 -11.2563 1.1013 32.8623 0.0000 -24.3270 -105.4152 13.9069 14.4250 134.0559 -0.0000 0.0000 -5.0699 9.3751 -7.7197 -9.1778 0.0000 0.0000 8.0011 -22.8441 -6.2304 11.3663 0.0000 -0.0000 -11.8593 -7.2401 3.7540 3.8139 0.0000 -0.0000
 17.4886 36.0354 -18.3128 -167.5417 4.7177 -171.1806 35.3460 -0.6796 -17.4615 7.3234 10.0905 24.5755 10.8673 10.1333 11.3607 -16.7294 -23.2422 -83.6012 -27.4072 -0.0000 -5.4091 0.0236 3.9458 -0.3433 33.1476 -0.0000 26.2537 1.9247 -17.9915 -5.0235 -12.2944 34.1762 76.5114 48.4078 0.0000 4.0295 0.1814 -11.3223 0.9237 32.8623 0.0000 -24.3270 -105.3205 13.6494 14.3886 133.8807 0.0000 -0.0000 -5.1248 9.5358 -7.4734 -8.9154 -0.0000 -0.0000 8.1739 -22.8177 -6.0815 11.3701 -0.0000 0.0000 -11.9450 -7.2412 3.8424 3.9883 0.0000 -0.0000
 17.5023 36.0296 -18.3080 -167.4980 4.7782 -171.2227 35.3272 -0.6426 -17.3637 7.5585 10.0650 24.4923 10.8381 10.1198 11.3124 -16.8894 -23.1722 -83.7095 -27.2054 -0.0000 -5.5657 0.0037 3.9278 -0.0536 33.1476 -0.0000 26.2537 2.1477 -18.0054 -4.8176 -12.2707 34.0858 76.3400 48.5907 0.0000 3.7326 0.2157 -11.3252 1.0981 32.8623 0.0000 -24.3270 -105.1714 13.4801 14.4236 133.6206 -0.0000 0.0000 -5.0693 9.8006 -7.4199 -8.9035 -0.0000 -0.0000 8.2149 -22.7390 -6.0437 11.4293 0.0000 -0.0000 -12.0398 -7.1978 3.9226 4.1928 0.0000 -0.0000
 17.5196 36.0233 -18.3031 -167.4403 4.8069 -171.3097 35.3190 -0.6024 -17.1550 7.6973 10.3157 24.3738 10.7888 10.0966 11.2593 -17.0134 -23.1296 -83.8565 -27.0084 -0.0000 -5.6510 -0.0087 3.8708 0.1282 33.1476 -0.0000 26.2537 2.3252 -18.0355 -4.6784 -12.1663 34.1204 76.1340 48.7978 0.0000 3.6236 0.1822 -11.3450 0.9260 32.8623 0.0000 -24.3270 -104.9023 13.2876 14.4091 133.3245 -0.0000 0.0000 -5.0384 10.0716 -7.2495 -8.7301 -0.0000 0.0000 8.3029 -22.6966 -5.9417 11.4613 -0.0000 0.0000 -12.1095 -7.1646 4.0324 4.3448 0.0000 -0.0000
 17.5593 36.0181 -18.3208 -167.2906 4.6984 -171.4883 35.3337 -0.6077 -16.8702 7.9123 10.3933 24.3120 10.7639 10.1213 11.3101 -17.1171 -23.1113 -84.0347 -26.8193 -0.0000 -5.8239 -0.0294 3.8779 0.4351 33.1476 -0.0000 26.2537 2.5281 -18.0880 -4.4689 -12.1238 34.0239 76.0387 48.8971 0.0000 3.3599 0.2264 -11.5950 1.1264 32.8623 0.0000 -24.3270 -104.4760 13.0229 14.3381 133.0507 -0.0000 0.0000 -4.9807 10.3415 -7.0895 -8.5701 0.0000 0.0000 8.6834 -22.8219 -5.6381 11.2738 0.0000 0.0000 -12.0635 -7.1128 4.0668 4.4097 -0.0000 0.0000
 17.5792 36.0142 -18.3147 -167.2445 4.7232 -171.5710 35.2810 -0.6029 -16.6874 8.0266 10.7533 24.2068 10.7255 10.1389 11.3382 -17.1520 -23.0593 -84.2040 -26.7370 -0.0000 -6.1755 -0.0663 3.8813 0.9788 33.1476 -0.0000 26.2537 2.7278 -18.1214 -4.3095 -12.1015 34.1548 75.8842 48.9294 0.0000 3.2124 0.2024 -11.5201 1.0132 32.8623 0.0000 -24.3270 -104.0636 12.8824 14.3359 132.6785 0.0000 -0.0000 -4.9396 10.7775 -6.8933 -8.3341 -0.0000 0.0000 8.7852 -22.7342 -5.5128 11.2626 0.0000 -0.0000 -12.0659 -7.1616 4.0613 4.2948 -0.0000 0.0000
 17.5908 36.0103 -18.3028 -167.2470 4.7708 -171.6375 35.1891 -0.5516 -16.4993 8.1593 10.9514 24.0441 10.6748 10.1220 11.3350 -17.1190 -23.0538 -84.3561 -26.7300 -0.0000 -6.3807 -0.0660 3.9260 0.9635 33.1476 -0.0000 26.2537 2.8377 -18.1632 -4.2341 -12.0988 34.1125 75.8567 48.9118 0.0000 3.2121 0.2444 -11.4948 1.2263 32.8623 0.0000 -24.3270 -103.6336 12.7729 14.3402 132.2832 -0.0000 0.0000 -4.8831 11.2632 -6.6732 -8.1621 -0.0000 -0.0000 8.7831 -22.6250 -5.4377 11.3140 -0.0000 0.0000 -12.0848 -7.1522 4.0683 4.3088 0.0000 -0.0000
 17.5954 36.0052 -18.2932 -167.2708 4.7982 -171.6950 35.0634 -0.4881 -16.2948 8.2707 11.1167 23.8738 10.6356 10.1010 11.3168 -17.0500 -23.0827 -84.5087 -26.7603 -0.0000 -6.6089 -0.0820 3.9732 1.1829 33.1476 -0.0000 26.2537 2.9689 -18.2709 -4.0342 -11.7459 34.7643 75.2659 49.0591 0.0000 2.6436 0.1663 -11.6927 0.8203 32.8623 0.0000 -24.3270 -103.1759 12.7216 14.3132 131.8849 0.0000 0.0000 -4.9029 11.7899 -6.4359 -7.8500 0.0000 -0.0000 8.7582 -22.4743 -5.3726 11.3666 0.0000 -0.0000 -12.0914 -7.2099 4.0362 4.1436 -0.0000 0.0000
 17.6022 36.0021 -18.2792 -167.3092 4.7952 -171.7146 34.9152 -0.5109 -16.1393 8.3452 11.4094 23.6873 10.6329 10.1371 11.3146 -16.9929 -23.2114 -84.6111 -26.8043 -0.0000 -6.8921 -0.0995 4.0081 1.4227 33.1476 -0.0000 26.2537 3.0233 -18.3199 -3.9649 -11.7103 34.8571 75.2565 48.9320 0.0000 2.5661 0.1701 -11.7071 0.8382 32.8623 0.0000 -24.3270 -102.6635 12.6964 14.2326 131.4580 0.0000 0.0000 -4.9044 12.2532 -6.2663 -7.6062 -0.0000 -0.0000 8.6790 -22.4615 -5.3412 11.4274 0.0000 -0.0000 -12.0646 -7.2046 3.8839 3.8743 0.0000 0.0000
